<svg width="680" height="460" viewBox="0 0 680 460" xmlns="http://www.w3.org/2000/svg">
<style>text{font-family:Arial,sans-serif;fill:#1a1a1a}.th{font-size:14px;font-weight:bold}.ts{font-size:12px;fill:#555}</style>
<rect width="680" height="460" fill="white"/>
<text class="th" x="340" y="25" text-anchor="middle" font-size="16">Multi-Provider LLM Router</text>
<rect x="250" y="40" width="180" height="44" rx="8" fill="#F1EFE8" stroke="#5F5E5A" stroke-width="1"/>
<text class="th" x="340" y="57" text-anchor="middle">User Request</text>
<text class="ts" x="340" y="73" text-anchor="middle">Any prompt or task</text>
<line x1="340" y1="84" x2="340" y2="110" stroke="#888" stroke-width="1.5" marker-end="url(#a)"/>
<rect x="200" y="110" width="280" height="52" rx="8" fill="#EEEDFE" stroke="#534AB7" stroke-width="1"/>
<text class="th" x="340" y="130" text-anchor="middle">Task Classifier</text>
<text class="ts" x="340" y="148" text-anchor="middle">Coding / Reasoning / Creative / General</text>
<line x1="340" y1="162" x2="340" y2="188" stroke="#888" stroke-width="1.5" marker-end="url(#a)"/>
<rect x="160" y="188" width="360" height="52" rx="8" fill="#E6F1FB" stroke="#185FA5" stroke-width="1"/>
<text class="th" x="340" y="208" text-anchor="middle">LLM Router + Circuit Breaker</text>
<text class="ts" x="340" y="226" text-anchor="middle">cost_optimized / performance / load_balanced</text>
<line x1="220" y1="240" x2="115" y2="295" stroke="#888" stroke-width="1.5" marker-end="url(#a)"/>
<line x1="295" y1="240" x2="255" y2="295" stroke="#888" stroke-width="1.5" marker-end="url(#a)"/>
<line x1="385" y1="240" x2="425" y2="295" stroke="#888" stroke-width="1.5" marker-end="url(#a)"/>
<line x1="460" y1="240" x2="565" y2="295" stroke="#888" stroke-width="1.5" marker-end="url(#a)"/>
<rect x="50" y="295" width="130" height="52" rx="8" fill="#EAF3DE" stroke="#3B6D11" stroke-width="1"/>
<text class="th" x="115" y="315" text-anchor="middle">OpenAI</text>
<text class="ts" x="115" y="333" text-anchor="middle">GPT-4 / GPT-3.5</text>
<rect x="200" y="295" width="130" height="52" rx="8" fill="#FAECE7" stroke="#993C1D" stroke-width="1"/>
<text class="th" x="265" y="315" text-anchor="middle">Anthropic</text>
<text class="ts" x="265" y="333" text-anchor="middle">Claude Sonnet/Haiku</text>
<rect x="350" y="295" width="130" height="52" rx="8" fill="#E6F1FB" stroke="#185FA5" stroke-width="1"/>
<text class="th" x="415" y="315" text-anchor="middle">Google</text>
<text class="ts" x="415" y="333" text-anchor="middle">Gemini 1.5 Flash</text>
<rect x="500" y="295" width="130" height="52" rx="8" fill="#E1F5EE" stroke="#0F6E56" stroke-width="1"/>
<text class="th" x="565" y="315" text-anchor="middle">Ollama</text>
<text class="ts" x="565" y="333" text-anchor="middle">Mistral/Llama local</text>
<line x1="115" y1="347" x2="220" y2="393" stroke="#888" stroke-width="1.5" marker-end="url(#a)"/>
<line x1="265" y1="347" x2="295" y2="393" stroke="#888" stroke-width="1.5" marker-end="url(#a)"/>
<line x1="415" y1="347" x2="385" y2="393" stroke="#888" stroke-width="1.5" marker-end="url(#a)"/>
<line x1="565" y1="347" x2="460" y2="393" stroke="#888" stroke-width="1.5" marker-end="url(#a)"/>
<rect x="130" y="393" width="420" height="44" rx="12" fill="#FAEEDA" stroke="#854F0B" stroke-width="1"/>
<text class="th" x="340" y="410" text-anchor="middle">Provider Registry</text>
<text class="ts" x="340" y="426" text-anchor="middle">Health tracking / Cost stats / Fallback logic</text>
<defs><marker id="a" viewBox="0 0 10 10" refX="8" refY="5" markerWidth="6" markerHeight="6" orient="auto"><path d="M2 1L8 5L2 9" fill="none" stroke="#888" stroke-width="1.5"/></marker></defs>
</svg>